<svg version="1.1" xmlns="http://www.w3.org/2000/svg" xmlns:xlink="http://www.w3.org/1999/xlink"  viewBox="0 0 322 512" style="fill:#e93380">
<g id="traffic-light">
<path id="Color-Fill-1" d="M165.339,130.169 C160.549,130.169 156.661,126.290 156.661,121.491 C156.661,107.138 144.980,95.457 130.627,95.457 C125.837,95.457 121.949,91.578 121.949,86.779 C121.949,81.980 125.837,78.101 130.627,78.101 C154.552,78.101 174.017,97.566 174.017,121.491 C174.017,126.290 170.129,130.169 165.339,130.169 "  />
<path id="Color-Fill-2" d="M165.339,216.949 C160.549,216.949 156.661,213.070 156.661,208.271 C156.661,193.918 144.980,182.237 130.627,182.237 C125.837,182.237 121.949,178.358 121.949,173.559 C121.949,168.760 125.837,164.881 130.627,164.881 C154.552,164.881 174.017,184.346 174.017,208.271 C174.017,213.070 170.129,216.949 165.339,216.949 "  />
<path id="Color-Fill-3" d="M165.339,303.729 C160.549,303.729 156.661,299.850 156.661,295.051 C156.661,280.698 144.980,269.017 130.627,269.017 C125.837,269.017 121.949,265.138 121.949,260.339 C121.949,255.540 125.837,251.661 130.627,251.661 C154.552,251.661 174.017,271.126 174.017,295.051 C174.017,299.850 170.129,303.729 165.339,303.729 "  />
<path id="Color-Fill-4" d="M269.475,130.169 C264.685,130.169 260.797,126.290 260.797,121.491 C260.797,97.566 280.262,78.101 304.187,78.101 C308.977,78.101 312.865,81.980 312.865,86.779 C312.865,91.578 308.977,95.457 304.187,95.457 C289.834,95.457 278.153,107.138 278.153,121.491 C278.153,126.290 274.265,130.169 269.475,130.169 "  />
<path id="Color-Fill-5" d="M269.475,216.949 C264.685,216.949 260.797,213.070 260.797,208.271 C260.797,184.346 280.262,164.881 304.187,164.881 C308.977,164.881 312.865,168.760 312.865,173.559 C312.865,178.358 308.977,182.237 304.187,182.237 C289.834,182.237 278.153,193.918 278.153,208.271 C278.153,213.070 274.265,216.949 269.475,216.949 "  />
<path id="Color-Fill-6" d="M269.475,303.729 C264.685,303.729 260.797,299.850 260.797,295.051 C260.797,271.126 280.262,251.661 304.187,251.661 C308.977,251.661 312.865,255.540 312.865,260.339 C312.865,265.138 308.977,269.017 304.187,269.017 C289.834,269.017 278.153,280.698 278.153,295.051 C278.153,299.850 274.265,303.729 269.475,303.729 "  />
<path id="Color-Fill-7" d="M266.763,338.441 C266.763,338.441 168.051,338.441 168.051,338.441 C161.759,338.441 156.657,333.338 156.657,327.056 C156.657,54.775 156.657,54.775 156.657,54.775 C156.657,48.492 161.760,43.390 168.051,43.390 C266.763,43.390 266.763,43.390 266.763,43.390 C273.055,43.390 278.148,48.493 278.148,54.775 C278.148,327.055 278.148,327.055 278.148,327.055 C278.148,333.338 273.054,338.441 266.763,338.441 "  />
<path id="Color-Fill-8" d="M243.441,104.136 C243.441,118.515 231.786,130.170 217.407,130.170 C203.028,130.170 191.373,118.515 191.373,104.136 C191.373,89.757 203.028,78.102 217.407,78.102 C231.786,78.102 243.441,89.756 243.441,104.136 " fill="#FFFFFF" />
<path id="Color-Fill-9" d="M243.441,190.915 C243.441,205.294 231.786,216.949 217.407,216.949 C203.028,216.949 191.373,205.294 191.373,190.915 C191.373,176.536 203.028,164.881 217.407,164.881 C231.786,164.881 243.441,176.536 243.441,190.915 " fill="#FFFFFF" />
<path id="Color-Fill-10" d="M243.441,277.695 C243.441,292.074 231.786,303.729 217.407,303.729 C203.028,303.729 191.373,292.074 191.373,277.695 C191.373,263.316 203.028,251.661 217.407,251.661 C231.786,251.661 243.441,263.316 243.441,277.695 " fill="#FFFFFF" />
<path id="Color-Fill-8-cop" d="M232.002,104.002 C232.002,112.285 225.286,118.999 217.000,118.999 C208.715,118.999 201.999,112.285 201.999,104.002 C201.999,95.719 208.715,89.005 217.000,89.005 C225.286,89.005 232.002,95.718 232.002,104.002 "  />
<path id="Color-Fill-9-cop" d="M232.002,190.992 C232.002,199.275 225.286,205.989 217.000,205.989 C208.715,205.989 201.999,199.275 201.999,190.992 C201.999,182.709 208.715,175.995 217.000,175.995 C225.286,175.995 232.002,182.709 232.002,190.992 " />
<path id="Color-Fill-10-co" d="M232.002,278.009 C232.002,286.292 225.286,293.006 217.000,293.006 C208.715,293.006 201.999,286.292 201.999,278.009 C201.999,269.725 208.715,263.011 217.000,263.011 C225.286,263.011 232.002,269.725 232.002,278.009 "  />
<path id="Color-Fill-11" d="M234.763,43.390 L234.763,8.678 L200.051,8.678 L200.051,43.390 L234.763,43.390 z"  />
<path id="Color-Fill-12" d="M43.847,416.542 C39.057,416.542 35.169,412.663 35.169,407.864 C35.169,95.458 35.169,95.458 35.169,95.458 C35.169,42.826 77.995,-0.000 130.627,-0.000 C312.864,-0.000 312.864,-0.000 312.864,-0.000 C317.654,-0.000 321.542,3.879 321.542,8.678 C321.542,13.477 317.654,17.356 312.864,17.356 C130.627,17.356 130.627,17.356 130.627,17.356 C87.567,17.356 52.525,52.389 52.525,95.458 C52.525,407.865 52.525,407.865 52.525,407.865 C52.525,412.663 48.638,416.542 43.847,416.542 "  />
<path id="Color-Fill-13" d="M87.237,512.000 L0.457,512.000 C0.457,512.000 0.457,488.405 0.457,488.405 C0.457,482.270 5.438,477.289 11.573,477.289 C76.120,477.289 76.120,477.289 76.120,477.289 C82.255,477.289 87.236,482.270 87.236,488.405 C87.236,512.000 87.236,512.000 87.236,512.000 L87.237,512.000 z"  />
<path id="Color-Fill-14" d="M69.881,477.288 L17.813,477.288 C17.813,477.288 17.813,418.981 17.813,418.981 C17.813,412.846 22.794,407.865 28.929,407.865 C58.764,407.865 58.764,407.865 58.764,407.865 C64.899,407.865 69.880,412.846 69.880,418.981 C69.880,477.288 69.880,477.288 69.880,477.288 L69.881,477.288 z"  />
</g>
</svg>
